<svg xmlns="http://www.w3.org/2000/svg" width="25" height="24" fill="none" viewBox="0 0 25 24"><path fill="#FFAE00" fill-rule="evenodd" d="M12.5 22.7166L0.5 8.77323L5.69838 1.7287L12.5 0.999954L19.3016 1.7287L24.5 8.77323L12.5 22.7166Z" clip-rule="evenodd"/><path fill="#EC6C00" fill-rule="evenodd" d="M12.5 22.7166L0.5 8.77323L24.5 8.77323L12.5 22.7166Z" clip-rule="evenodd"/><path fill="#FFAE00" fill-rule="evenodd" d="M12.5 22.7166L5.35832 8.77323L19.6417 8.77323L12.5 22.7166Z" clip-rule="evenodd"/><path fill="#FFEFB4" fill-rule="evenodd" d="M12.5 0.999914L5.35832 8.77319L19.6417 8.77319L12.5 0.999914Z" clip-rule="evenodd"/><path fill="#FFAE00" fill-rule="evenodd" d="M5.69836 1.72866L3.0263 5.27522L0.499984 8.77319L5.40687 8.77319L5.69836 1.72866Z" clip-rule="evenodd"/><path fill="#FFAE00" fill-rule="evenodd" d="M19.3016 1.72866L21.9737 5.27522L24.5 8.77319L19.5931 8.77319L19.3016 1.72866Z" clip-rule="evenodd"/><path fill="#FED305" fill-rule="evenodd" d="M5.69838 1.72866L5.3583 8.77319L12.5 0.999914L5.69838 1.72866Z" clip-rule="evenodd"/><path fill="#FED305" fill-rule="evenodd" d="M19.3016 1.72866L19.6417 8.77319L12.5 0.999914L19.3016 1.72866Z" clip-rule="evenodd"/></svg>