<svg xmlns="http://www.w3.org/2000/svg" xmlns:xlink="http://www.w3.org/1999/xlink" width="500" zoomAndPan="magnify" viewBox="0 0 375 374.999991" height="500" preserveAspectRatio="xMidYMid meet" version="1.0"><defs><g/></defs><rect x="-37.5" width="450" fill="rgb(100%, 100%, 100%)" y="-37.499999" height="449.999989" fill-opacity="1"/><rect x="-37.5" width="450" fill="rgb(100%, 100%, 100%)" y="-37.499999" height="449.999989" fill-opacity="1"/><rect x="-37.5" width="450" fill="rgb(100%, 100%, 100%)" y="-37.499999" height="449.999989" fill-opacity="1"/><rect x="-37.5" width="450" fill="rgb(100%, 100%, 100%)" y="-37.499999" height="449.999989" fill-opacity="1"/><path fill="rgb(0%, 0%, 0%)" d="M 228.574219 157.914062 L 228.582031 157.914062 Z M 224.816406 146.917969 C 222.042969 146.917969 217.574219 155.015625 216.65625 157.875 C 215.933594 160.101562 215.511719 162.644531 215.40625 165.316406 C 219.6875 162.589844 223.777344 159.917969 227.585938 157.359375 C 227.835938 151.34375 226.859375 147.277344 225.066406 146.9375 C 224.984375 146.921875 224.902344 146.917969 224.816406 146.917969 Z M 214.375 168.191406 C 214.207031 168.191406 214.039062 168.152344 213.890625 168.070312 C 213.566406 167.894531 213.363281 167.558594 213.359375 167.191406 C 213.300781 163.628906 213.773438 160.191406 214.726562 157.25 C 215.242188 155.644531 220.417969 144.003906 225.441406 144.945312 C 229.597656 145.726562 229.820312 153.4375 229.585938 157.96875 C 229.566406 158.289062 229.402344 158.578125 229.136719 158.757812 C 224.730469 161.726562 219.945312 164.847656 214.914062 168.035156 C 214.75 168.136719 214.558594 168.191406 214.375 168.191406 " fill-opacity="1" fill-rule="nonzero"/><path fill="rgb(0%, 0%, 0%)" d="M 129.597656 196.925781 C 132.316406 196.925781 135.214844 197.878906 138.339844 200.328125 C 139.304688 201.085938 140.246094 201.910156 141.15625 202.707031 C 142.046875 203.484375 142.894531 204.222656 143.730469 204.878906 C 153.609375 200.261719 163.820312 195.113281 174.109375 189.554688 C 173.734375 187.902344 173.460938 185.949219 173.167969 183.902344 C 172.441406 178.773438 171.535156 172.394531 168.808594 171.285156 C 165.835938 170.074219 161.5 173.699219 159.777344 175.316406 C 159.164062 175.886719 158.234375 176.933594 157.15625 178.148438 C 152.890625 182.960938 146.441406 190.238281 141.574219 189.128906 C 139.582031 188.675781 138.136719 186.933594 137.28125 183.949219 C 136.382812 180.832031 137.527344 177.523438 138.628906 174.328125 C 139.707031 171.203125 140.824219 167.972656 139.960938 165.074219 C 139.355469 163.046875 138.417969 161.796875 137.167969 161.367188 C 135.394531 160.753906 132.734375 161.65625 129.472656 163.980469 C 122.710938 168.785156 119.332031 176.875 116.066406 184.699219 C 114.636719 188.128906 113.15625 191.667969 111.410156 194.902344 C 113.003906 197.601562 114.785156 200.246094 116.710938 202.78125 C 120.601562 199.871094 124.824219 196.925781 129.597656 196.925781 Z M 143.605469 207.074219 C 143.390625 207.074219 143.179688 207.007812 143.003906 206.875 C 141.941406 206.085938 140.867188 205.148438 139.824219 204.238281 C 138.933594 203.457031 138.015625 202.652344 137.089844 201.929688 C 129.863281 196.253906 124.492188 199.464844 117.128906 205.007812 C 116.6875 205.339844 116.0625 205.253906 115.722656 204.820312 C 113.386719 201.816406 111.246094 198.660156 109.367188 195.429688 C 109.1875 195.121094 109.1875 194.738281 109.359375 194.425781 C 111.175781 191.152344 112.710938 187.472656 114.199219 183.917969 C 117.574219 175.828125 121.066406 167.460938 128.300781 162.324219 C 132.167969 159.566406 135.375 158.597656 137.828125 159.445312 C 139.734375 160.101562 141.101562 161.800781 141.902344 164.496094 C 142.953125 168.019531 141.726562 171.566406 140.546875 174.988281 C 139.496094 178.023438 138.511719 180.890625 139.226562 183.386719 C 139.863281 185.605469 140.804688 186.871094 142.023438 187.148438 C 145.71875 188 152.175781 180.707031 155.644531 176.796875 C 156.796875 175.496094 157.714844 174.464844 158.394531 173.832031 C 160.890625 171.492188 165.65625 167.8125 169.570312 169.402344 C 173.375 170.953125 174.289062 177.390625 175.175781 183.613281 C 175.503906 185.933594 175.816406 188.128906 176.257812 189.820312 C 176.378906 190.273438 176.171875 190.746094 175.757812 190.96875 C 165.011719 196.792969 154.335938 202.179688 144.03125 206.980469 C 143.898438 207.042969 143.75 207.074219 143.605469 207.074219 " fill-opacity="1" fill-rule="nonzero"/><path fill="rgb(0%, 0%, 0%)" d="M 103.378906 176.191406 C 103.835938 177.792969 104.332031 179.351562 104.859375 180.828125 C 106.308594 184.964844 108.109375 188.988281 110.21875 192.8125 C 111.667969 189.96875 112.953125 186.898438 114.199219 183.917969 C 117.574219 175.828125 121.066406 167.460938 128.300781 162.324219 C 132.167969 159.566406 135.375 158.597656 137.828125 159.445312 C 139.734375 160.101562 141.101562 161.800781 141.902344 164.496094 C 142.953125 168.019531 141.726562 171.566406 140.546875 174.988281 C 139.496094 178.023438 138.511719 180.890625 139.226562 183.386719 C 139.863281 185.605469 140.804688 186.871094 142.023438 187.148438 C 145.71875 188 152.175781 180.710938 155.644531 176.796875 C 156.796875 175.496094 157.714844 174.464844 158.394531 173.832031 C 160.890625 171.492188 165.65625 167.8125 169.570312 169.402344 C 173.375 170.953125 174.289062 177.390625 175.175781 183.613281 C 175.425781 185.390625 175.667969 187.089844 175.964844 188.550781 C 180.707031 185.972656 185.558594 183.253906 190.417969 180.457031 C 190.710938 174.839844 191.453125 168.300781 194.378906 161.859375 C 200.050781 149.367188 211.773438 140.726562 220.097656 135.308594 C 225.988281 131.476562 234.585938 129.132812 238.921875 132.347656 C 241.613281 134.34375 242.230469 137.984375 240.746094 143.164062 C 240.144531 145.253906 238.960938 147.582031 237.707031 150.050781 C 237.621094 150.222656 237.53125 150.398438 237.441406 150.574219 C 244.828125 145.367188 251.617188 140.289062 257.667969 135.441406 C 254.816406 123.585938 249.171875 112.375 241.324219 102.976562 C 240.21875 101.65625 239.0625 100.355469 237.882812 99.113281 C 236.609375 97.78125 235.320312 96.519531 234.050781 95.359375 C 232.835938 94.234375 231.558594 93.132812 230.242188 92.074219 C 229.007812 91.0625 227.730469 90.085938 226.425781 89.15625 C 226.378906 90.871094 226.371094 92.515625 226.371094 93.851562 C 226.378906 95.925781 226.421875 97.992188 226.464844 99.992188 C 226.535156 103.332031 226.597656 106.488281 226.492188 109.207031 C 226.464844 110.382812 226.386719 111.507812 226.261719 112.542969 C 225.847656 115.984375 223.480469 126.25 218.1875 128.257812 C 216 129.082031 213.699219 128.4375 211.347656 126.332031 C 209.449219 124.640625 208.933594 121.867188 208.480469 119.421875 C 208.320312 118.578125 208.175781 117.78125 207.980469 117.054688 C 207.351562 114.691406 206.4375 113.558594 203.398438 114.347656 C 200.296875 115.15625 198.070312 118.21875 196.601562 123.722656 C 196.007812 125.949219 195.621094 128.25 195.3125 130.101562 C 195.242188 130.507812 195.175781 130.898438 195.113281 131.265625 C 194.984375 132.007812 194.867188 132.835938 194.742188 133.714844 C 193.90625 139.5625 192.769531 147.578125 186.132812 149.292969 C 184.113281 149.8125 182.121094 149.5 180.363281 148.390625 C 177.15625 146.367188 175.34375 142.234375 174.714844 139.039062 C 174.40625 137.492188 174.296875 135.941406 174.375 134.304688 C 174.636719 129.203125 176.8125 124.59375 178.917969 120.140625 C 179.625 118.644531 180.355469 117.097656 180.988281 115.574219 C 182.589844 111.71875 184.03125 107.082031 182.570312 101.914062 C 181.632812 98.566406 179.84375 95.429688 178.113281 92.402344 C 175.921875 88.558594 173.652344 84.585938 172.9375 79.992188 C 172.683594 78.402344 172.589844 76.683594 172.652344 74.65625 C 160.238281 75.8125 148.164062 79.921875 137.613281 86.585938 C 137.667969 86.792969 137.722656 87 137.773438 87.203125 C 138.785156 91.074219 139.65625 94.417969 144.882812 95.53125 C 147.585938 96.113281 150.535156 95.785156 153.390625 95.472656 C 155.113281 95.28125 156.894531 95.085938 158.625 95.085938 C 158.636719 95.085938 158.648438 95.085938 158.660156 95.085938 C 163.773438 95.09375 164.207031 95.316406 166.429688 99.066406 C 170.5625 106.039062 168.632812 115.015625 160.566406 126.574219 C 159.378906 128.269531 157.996094 129.914062 156.453125 131.46875 C 150.429688 137.59375 142.21875 142.328125 135 146.285156 C 132.386719 147.710938 129.507812 148.929688 125.925781 150.113281 C 123.042969 151.070312 120.0625 151.890625 117.179688 152.675781 C 111.515625 154.226562 105.660156 155.828125 100.453125 158.578125 C 100.578125 161.007812 100.824219 163.453125 101.183594 165.851562 C 101.671875 169.304688 102.402344 172.757812 103.363281 176.125 C 103.371094 176.148438 103.378906 176.167969 103.378906 176.191406 Z M 110.246094 195.933594 C 109.886719 195.933594 109.550781 195.742188 109.371094 195.429688 C 106.804688 191.023438 104.644531 186.339844 102.949219 181.503906 C 102.402344 179.976562 101.890625 178.355469 101.417969 176.691406 C 101.410156 176.671875 101.40625 176.648438 101.402344 176.628906 C 100.421875 173.1875 99.671875 169.664062 99.175781 166.148438 C 98.777344 163.472656 98.515625 160.738281 98.398438 158.027344 C 98.378906 157.644531 98.585938 157.28125 98.921875 157.09375 C 104.476562 154.042969 110.664062 152.355469 116.648438 150.71875 C 119.503906 149.9375 122.457031 149.128906 125.285156 148.1875 C 125.285156 148.1875 125.289062 148.183594 125.289062 148.183594 C 128.75 147.042969 131.523438 145.871094 134.023438 144.5 C 141.121094 140.613281 149.175781 135.972656 155.011719 130.042969 C 156.480469 128.5625 157.785156 127.007812 158.90625 125.40625 C 166.46875 114.574219 168.371094 106.316406 164.714844 100.15625 C 162.921875 97.125 162.921875 97.125 158.660156 97.117188 C 157.019531 97.097656 155.371094 97.296875 153.613281 97.492188 C 150.597656 97.820312 147.480469 98.164062 144.457031 97.519531 C 138.011719 96.144531 136.84375 91.667969 135.8125 87.714844 C 135.699219 87.277344 135.585938 86.839844 135.464844 86.402344 C 135.347656 85.976562 135.519531 85.519531 135.894531 85.28125 C 147.191406 77.988281 160.242188 73.582031 173.636719 72.535156 C 173.929688 72.511719 174.214844 72.617188 174.425781 72.820312 C 174.636719 73.027344 174.742188 73.308594 174.726562 73.601562 C 174.59375 76.003906 174.660156 77.933594 174.9375 79.675781 C 175.597656 83.902344 177.675781 87.539062 179.875 91.394531 C 181.664062 94.53125 183.511719 97.773438 184.519531 101.359375 C 186.152344 107.128906 184.59375 112.175781 182.859375 116.359375 C 182.207031 117.921875 181.464844 119.488281 180.75 121.007812 C 178.730469 125.285156 176.640625 129.710938 176.398438 134.40625 C 176.328125 135.871094 176.425781 137.257812 176.703125 138.644531 C 177.226562 141.300781 178.777344 144.992188 181.441406 146.671875 C 182.738281 147.488281 184.140625 147.707031 185.625 147.324219 C 190.953125 145.949219 191.984375 138.710938 192.734375 133.425781 C 192.863281 132.527344 192.984375 131.679688 193.117188 130.917969 C 193.179688 130.554688 193.246094 130.167969 193.3125 129.765625 C 193.628906 127.871094 194.019531 125.519531 194.640625 123.195312 C 196.324219 116.925781 199.019531 113.386719 202.890625 112.382812 C 207.875 111.085938 209.300781 114.128906 209.941406 116.53125 C 210.152344 117.332031 210.3125 118.207031 210.472656 119.050781 C 210.882812 121.277344 211.316406 123.585938 212.691406 124.816406 C 214.46875 126.398438 216.03125 126.902344 217.46875 126.355469 C 221.460938 124.84375 223.796875 116.070312 224.25 112.300781 C 224.363281 111.324219 224.441406 110.261719 224.46875 109.140625 C 224.574219 106.472656 224.507812 103.347656 224.4375 100.035156 C 224.394531 98.027344 224.355469 95.953125 224.34375 93.859375 C 224.34375 92.019531 224.359375 89.613281 224.46875 87.214844 C 224.488281 86.851562 224.699219 86.523438 225.027344 86.355469 C 225.355469 86.191406 225.746094 86.21875 226.046875 86.421875 C 227.929688 87.695312 229.769531 89.0625 231.519531 90.496094 C 232.863281 91.574219 234.179688 92.710938 235.421875 93.859375 C 236.71875 95.046875 238.042969 96.34375 239.347656 97.710938 C 240.558594 98.988281 241.746094 100.320312 242.875 101.675781 C 251.066406 111.476562 256.914062 123.210938 259.789062 135.601562 C 259.878906 135.980469 259.742188 136.378906 259.4375 136.625 C 252.363281 142.3125 244.273438 148.320312 235.394531 154.480469 C 235.019531 154.738281 234.519531 154.71875 234.167969 154.425781 C 233.820312 154.132812 233.707031 153.640625 233.894531 153.226562 C 234.523438 151.839844 235.226562 150.460938 235.902344 149.132812 C 237.109375 146.75 238.25 144.503906 238.796875 142.601562 C 240.019531 138.320312 239.660156 135.421875 237.71875 133.980469 C 234.292969 131.4375 226.476562 133.578125 221.203125 137.015625 C 213.089844 142.289062 201.675781 150.691406 196.222656 162.699219 C 193.34375 169.039062 192.679688 175.5625 192.410156 181.109375 C 192.394531 181.453125 192.207031 181.765625 191.90625 181.9375 C 186.472656 185.074219 181.039062 188.113281 175.757812 190.972656 C 175.484375 191.117188 175.15625 191.132812 174.871094 191.007812 C 174.589844 190.882812 174.375 190.636719 174.296875 190.335938 C 173.824219 188.527344 173.507812 186.28125 173.167969 183.902344 C 172.441406 178.773438 171.535156 172.394531 168.808594 171.285156 C 165.835938 170.074219 161.5 173.703125 159.777344 175.316406 C 159.164062 175.886719 158.234375 176.933594 157.15625 178.148438 C 152.890625 182.960938 146.441406 190.238281 141.574219 189.128906 C 139.582031 188.675781 138.136719 186.933594 137.28125 183.949219 C 136.382812 180.832031 137.527344 177.523438 138.628906 174.328125 C 139.707031 171.203125 140.824219 167.972656 139.960938 165.074219 C 139.355469 163.046875 138.417969 161.796875 137.167969 161.367188 C 135.394531 160.753906 132.734375 161.65625 129.472656 163.980469 C 122.710938 168.785156 119.332031 176.875 116.066406 184.699219 C 114.558594 188.308594 113.003906 192.042969 111.132812 195.410156 C 110.953125 195.730469 110.621094 195.929688 110.253906 195.933594 C 110.253906 195.933594 110.246094 195.933594 110.246094 195.933594 " fill-opacity="1" fill-rule="nonzero"/><path fill="rgb(0%, 0%, 0%)" d="M 99.421875 167.761719 C 40.570312 208.523438 6.152344 244.550781 13.664062 257.601562 C 21.417969 271.054688 73.9375 257.5 141.386719 224.640625 C 157.242188 216.917969 173.578125 208.308594 189.953125 199.050781 C 192.679688 197.511719 195.417969 195.941406 198.167969 194.351562 C 198.484375 194.171875 198.796875 193.992188 199.105469 193.808594 C 199.394531 193.640625 199.683594 193.472656 199.976562 193.304688 C 213.804688 185.261719 227.300781 176.957031 240.085938 168.628906 C 246.972656 164.144531 253.777344 159.570312 260.3125 155.027344 C 318.460938 114.617188 352.523438 78.785156 345.082031 65.871094 C 341.601562 59.835938 328.589844 59.074219 308.433594 63.730469 C 288.4375 68.351562 262.300781 77.957031 232.773438 91.527344 C 233.683594 92.289062 234.570312 93.074219 235.421875 93.859375 C 236.71875 95.046875 238.042969 96.34375 239.347656 97.710938 C 240.394531 98.8125 241.421875 99.957031 242.410156 101.121094 C 258.804688 94.894531 286.253906 86.160156 291.4375 95.167969 C 296.847656 104.554688 273.710938 125.171875 259.4375 136.625 C 252.363281 142.3125 244.273438 148.320312 235.394531 154.480469 C 233.289062 155.941406 231.183594 157.382812 229.136719 158.757812 C 224.730469 161.726562 219.945312 164.847656 214.914062 168.035156 C 207.59375 172.664062 200 177.253906 192.335938 181.6875 C 192.28125 181.722656 192.199219 181.769531 192.117188 181.816406 C 192.050781 181.851562 191.988281 181.886719 191.929688 181.925781 C 186.472656 185.074219 181.039062 188.113281 175.757812 190.972656 C 165.011719 196.792969 154.335938 202.179688 144.03125 206.980469 C 137.796875 209.882812 131.71875 212.554688 125.976562 214.921875 C 110.648438 221.242188 97.347656 225.527344 87.511719 227.320312 C 76.808594 229.269531 70.25 228.296875 68.011719 224.421875 C 65.589844 220.207031 66.902344 208.960938 102.707031 180.816406 C 102.25 179.492188 101.820312 178.105469 101.417969 176.691406 C 101.410156 176.671875 101.40625 176.648438 101.402344 176.628906 C 100.574219 173.71875 99.90625 170.738281 99.421875 167.761719 Z M 28.488281 264.769531 C 19.988281 264.769531 14.296875 262.761719 11.910156 258.617188 C 7.710938 251.332031 14.183594 238.414062 30.617188 221.265625 C 46.382812 204.8125 70.242188 185.414062 99.605469 165.167969 C 99.894531 164.96875 100.265625 164.933594 100.585938 165.074219 C 100.90625 165.214844 101.132812 165.511719 101.183594 165.863281 C 101.671875 169.304688 102.402344 172.757812 103.363281 176.125 C 103.371094 176.148438 103.378906 176.167969 103.378906 176.191406 C 103.835938 177.792969 104.332031 179.351562 104.859375 180.828125 C 105.007812 181.242188 104.875 181.699219 104.527344 181.96875 C 79.609375 201.480469 66.289062 217.359375 69.769531 223.40625 C 72.582031 228.277344 88.625 228.121094 125.203125 213.042969 C 130.921875 210.691406 136.96875 208.03125 143.175781 205.136719 C 153.445312 200.355469 164.082031 194.988281 174.796875 189.183594 C 180.0625 186.332031 185.476562 183.304688 190.894531 180.179688 C 190.949219 180.144531 191.035156 180.097656 191.117188 180.050781 C 191.179688 180.011719 191.238281 179.980469 191.304688 179.941406 C 198.964844 175.511719 206.535156 170.929688 213.832031 166.316406 C 218.847656 163.140625 223.617188 160.03125 228.007812 157.070312 C 230.046875 155.699219 232.144531 154.265625 234.242188 152.8125 C 243.082031 146.675781 251.132812 140.699219 258.167969 135.039062 C 292.371094 107.59375 290.9375 98.359375 289.683594 96.183594 C 288.46875 94.074219 281.472656 88.347656 242.460938 103.277344 C 242.054688 103.425781 241.597656 103.3125 241.324219 102.976562 C 240.21875 101.65625 239.0625 100.355469 237.882812 99.113281 C 236.609375 97.78125 235.320312 96.519531 234.050781 95.359375 C 232.835938 94.234375 231.558594 93.132812 230.242188 92.074219 C 229.972656 91.855469 229.832031 91.507812 229.875 91.160156 C 229.917969 90.808594 230.136719 90.507812 230.453125 90.359375 C 280.488281 67.226562 337.339844 48.378906 346.839844 64.855469 C 351.039062 72.148438 344.953125 84.496094 328.746094 101.5625 C 313.433594 117.683594 290.167969 136.75 261.464844 156.695312 C 254.914062 161.25 248.09375 165.835938 241.191406 170.332031 C 228.378906 178.679688 214.851562 187.003906 200.984375 195.066406 L 200.125 195.566406 C 199.808594 195.75 199.496094 195.933594 199.175781 196.113281 C 196.421875 197.703125 193.679688 199.277344 190.949219 200.820312 C 174.539062 210.097656 158.164062 218.726562 142.273438 226.46875 C 91.324219 251.285156 50.5 264.769531 28.488281 264.769531 " fill-opacity="1" fill-rule="nonzero"/><path fill="rgb(0%, 0%, 0%)" d="M 235.546875 188.457031 L 235.554688 188.457031 Z M 176.101562 234.09375 C 177.445312 234.160156 178.785156 234.191406 180.113281 234.191406 C 187.664062 234.191406 195.136719 233.136719 202.316406 231.050781 C 208.625 221.914062 216.699219 213.5625 222.390625 208.144531 C 231.179688 199.769531 241.972656 192.351562 252.808594 187.230469 C 253.464844 185.785156 254.078125 184.308594 254.636719 182.832031 C 251.96875 183.800781 249.265625 184.71875 246.632812 185.613281 C 243.109375 186.8125 239.464844 188.050781 235.90625 189.40625 C 228.066406 192.386719 221.742188 199.835938 216.167969 206.410156 C 215.554688 207.132812 214.949219 207.84375 214.355469 208.539062 C 213.253906 209.824219 203.417969 221.046875 197.539062 219.324219 C 195.558594 218.742188 194.328125 216.878906 193.890625 213.777344 C 193.3125 209.667969 195.039062 205.886719 196.714844 202.234375 C 197.621094 200.253906 198.550781 198.222656 199.082031 196.167969 C 196.511719 197.652344 193.945312 199.125 191.386719 200.570312 C 191.101562 202.667969 190.734375 204.59375 190.261719 206.425781 C 188.074219 215.082031 185.191406 224.875 178.652344 231.554688 C 177.773438 232.453125 176.929688 233.296875 176.101562 234.09375 Z M 180.113281 236.222656 C 177.972656 236.222656 175.792969 236.136719 173.628906 235.96875 C 173.230469 235.9375 172.882812 235.671875 172.75 235.289062 C 172.621094 234.90625 172.726562 234.484375 173.023438 234.210938 C 174.367188 232.96875 175.738281 231.632812 177.207031 230.132812 C 183.390625 223.816406 186.175781 214.324219 188.300781 205.925781 C 188.785156 204.019531 189.160156 202.019531 189.445312 199.804688 C 189.488281 199.484375 189.675781 199.207031 189.953125 199.050781 C 192.679688 197.511719 195.417969 195.941406 198.167969 194.351562 C 198.484375 194.171875 198.796875 193.992188 199.105469 193.808594 C 199.394531 193.640625 199.683594 193.472656 199.976562 193.304688 C 200.304688 193.117188 200.710938 193.125 201.03125 193.339844 C 201.351562 193.542969 201.523438 193.910156 201.484375 194.292969 C 201.164062 197.386719 199.835938 200.28125 198.554688 203.082031 C 196.933594 206.625 195.398438 209.96875 195.894531 213.496094 C 196.210938 215.730469 196.957031 217.039062 198.109375 217.378906 C 201.59375 218.394531 208.984375 211.683594 212.820312 207.210938 C 213.414062 206.523438 214.011719 205.8125 214.621094 205.09375 C 220.359375 198.335938 226.859375 190.667969 235.1875 187.507812 C 238.777344 186.140625 242.441406 184.894531 245.984375 183.691406 C 249.277344 182.570312 252.679688 181.414062 255.980469 180.171875 C 256.351562 180.035156 256.765625 180.121094 257.046875 180.398438 C 257.328125 180.671875 257.425781 181.085938 257.296875 181.457031 C 256.484375 183.792969 255.542969 186.136719 254.5 188.414062 C 254.398438 188.632812 254.222656 188.8125 254.003906 188.914062 C 243.246094 193.945312 232.515625 201.300781 223.789062 209.617188 C 218.105469 215.027344 210.019531 223.390625 203.785156 232.496094 C 203.652344 232.691406 203.457031 232.828125 203.238281 232.894531 C 195.761719 235.105469 187.976562 236.222656 180.113281 236.222656 " fill-opacity="1" fill-rule="nonzero"/><path fill="rgb(0%, 0%, 0%)" d="M 220.648438 136.164062 L 220.65625 136.164062 Z M 233.554688 132.867188 C 229.757812 132.867188 224.867188 134.625 221.203125 137.015625 C 221.203125 137.015625 221.203125 137.015625 221.199219 137.015625 C 213.089844 142.289062 201.675781 150.691406 196.222656 162.699219 C 193.660156 168.339844 192.855469 174.125 192.519531 179.234375 C 199.597656 175.121094 206.59375 170.886719 213.355469 166.617188 C 213.355469 163.261719 213.828125 160.035156 214.726562 157.25 C 215.242188 155.644531 220.417969 144.003906 225.441406 144.945312 C 229.03125 145.621094 229.6875 151.464844 229.648438 155.964844 C 231.089844 154.984375 232.550781 153.984375 234.011719 152.96875 C 234.613281 151.667969 235.265625 150.378906 235.902344 149.132812 C 237.109375 146.75 238.25 144.503906 238.796875 142.601562 C 240.019531 138.320312 239.660156 135.421875 237.71875 133.980469 C 236.671875 133.203125 235.21875 132.867188 233.554688 132.867188 Z M 191.402344 182.074219 C 191.222656 182.074219 191.042969 182.027344 190.882812 181.933594 C 190.558594 181.742188 190.367188 181.386719 190.386719 181.011719 C 190.664062 175.273438 191.355469 168.511719 194.378906 161.859375 C 200.050781 149.367188 211.773438 140.726562 220.097656 135.308594 L 220.097656 135.3125 C 227.988281 130.171875 235.683594 129.945312 238.921875 132.347656 C 241.613281 134.34375 242.230469 137.984375 240.746094 143.164062 C 240.144531 145.253906 238.960938 147.582031 237.707031 150.050781 C 237.042969 151.363281 236.351562 152.722656 235.742188 154.066406 C 235.664062 154.234375 235.546875 154.378906 235.394531 154.480469 C 233.289062 155.941406 231.183594 157.382812 229.136719 158.757812 C 228.820312 158.972656 228.40625 158.988281 228.074219 158.796875 C 227.738281 158.609375 227.542969 158.246094 227.5625 157.863281 C 227.890625 151.574219 226.910156 147.285156 225.066406 146.9375 C 222.296875 146.421875 217.601562 154.929688 216.65625 157.875 C 215.769531 160.605469 215.332031 163.820312 215.386719 167.160156 C 215.390625 167.515625 215.210938 167.84375 214.914062 168.035156 C 207.59375 172.664062 200 177.253906 192.335938 181.6875 C 192.28125 181.722656 192.199219 181.769531 192.117188 181.816406 C 192.050781 181.851562 191.988281 181.886719 191.929688 181.925781 C 191.769531 182.027344 191.582031 182.074219 191.402344 182.074219 " fill-opacity="1" fill-rule="nonzero"/><path fill="rgb(0%, 0%, 0%)" d="M 102.519531 135.636719 C 101.507812 139.859375 100.84375 144.183594 100.542969 148.542969 C 101.148438 147.984375 101.753906 147.433594 102.363281 146.894531 C 109.476562 140.585938 115.601562 137.59375 123.507812 136.570312 C 124.714844 136.414062 125.910156 136.285156 127.085938 136.160156 C 133.371094 135.484375 138.800781 134.902344 143.65625 130.4375 C 147.972656 126.46875 152.871094 120.050781 152.472656 115.035156 C 152.292969 112.8125 151.484375 111.402344 149.996094 110.71875 C 147.070312 109.371094 141.5 110.671875 133.894531 114.472656 C 127.800781 117.519531 121.910156 121.453125 119.644531 123.109375 C 117.824219 124.4375 115.988281 125.941406 114.214844 127.390625 C 110.539062 130.394531 106.738281 133.496094 102.519531 135.636719 Z M 99.394531 151.980469 C 99.25 151.980469 99.101562 151.949219 98.964844 151.886719 C 98.597656 151.714844 98.367188 151.335938 98.382812 150.925781 C 98.59375 145.449219 99.359375 139.984375 100.664062 134.695312 C 100.734375 134.398438 100.933594 134.152344 101.203125 134.023438 C 105.382812 131.984375 109.222656 128.847656 112.933594 125.816406 C 114.726562 124.347656 116.585938 122.832031 118.449219 121.46875 C 118.679688 121.296875 141.640625 104.640625 150.84375 108.871094 C 153.023438 109.878906 154.253906 111.894531 154.492188 114.871094 C 155.078125 122.28125 146.710938 130.386719 145.027344 131.933594 C 139.679688 136.847656 133.664062 137.496094 127.304688 138.179688 C 126.140625 138.304688 124.960938 138.429688 123.765625 138.582031 C 115.042969 139.714844 109.4375 143.332031 103.707031 148.417969 C 102.851562 149.171875 102 149.957031 101.148438 150.734375 L 100.078125 151.71875 C 99.886719 151.890625 99.640625 151.980469 99.394531 151.980469 " fill-opacity="1" fill-rule="nonzero"/><path fill="rgb(0%, 0%, 0%)" d="M 174.6875 74.496094 C 174.613281 76.492188 174.695312 78.152344 174.9375 79.675781 C 175.597656 83.902344 177.675781 87.539062 179.875 91.394531 C 181.664062 94.53125 183.511719 97.773438 184.519531 101.359375 C 186.152344 107.128906 184.59375 112.175781 182.859375 116.359375 C 182.207031 117.921875 181.464844 119.488281 180.75 121.007812 C 178.730469 125.285156 176.640625 129.710938 176.398438 134.40625 C 176.328125 135.871094 176.425781 137.257812 176.703125 138.644531 C 177.226562 141.300781 178.777344 144.992188 181.441406 146.671875 C 182.738281 147.488281 184.140625 147.707031 185.625 147.324219 C 190.953125 145.949219 191.984375 138.710938 192.734375 133.425781 C 192.863281 132.527344 192.984375 131.679688 193.117188 130.917969 C 193.179688 130.554688 193.246094 130.167969 193.3125 129.765625 C 193.628906 127.871094 194.019531 125.519531 194.640625 123.195312 C 196.324219 116.925781 199.019531 113.386719 202.890625 112.382812 C 207.875 111.085938 209.300781 114.128906 209.941406 116.53125 C 210.152344 117.332031 210.3125 118.207031 210.472656 119.050781 C 210.882812 121.277344 211.316406 123.585938 212.691406 124.816406 C 214.46875 126.398438 216.03125 126.902344 217.46875 126.355469 C 221.460938 124.84375 223.796875 116.070312 224.25 112.300781 C 224.363281 111.324219 224.441406 110.261719 224.46875 109.140625 C 224.574219 106.472656 224.507812 103.347656 224.4375 100.035156 C 224.394531 98.027344 224.355469 95.953125 224.34375 93.859375 C 224.34375 92.164062 224.355469 89.988281 224.445312 87.789062 C 219.390625 84.390625 213.964844 81.589844 208.304688 79.449219 C 207.476562 80.386719 206.839844 81.527344 206.449219 82.78125 C 206.015625 84.167969 205.832031 86.207031 205.636719 88.367188 C 205.164062 93.613281 204.628906 99.566406 200.382812 101.882812 C 198.453125 102.9375 196.761719 103.042969 195.363281 102.207031 C 192.035156 100.210938 191.628906 93.605469 191.671875 87.402344 L 191.675781 86.8125 C 191.675781 85.640625 191.730469 84.273438 191.792969 82.828125 C 191.886719 80.457031 191.996094 77.800781 191.894531 75.183594 C 186.273438 74.339844 180.5 74.101562 174.6875 74.496094 Z M 184.242188 149.535156 C 182.886719 149.535156 181.566406 149.152344 180.363281 148.390625 C 177.15625 146.367188 175.34375 142.234375 174.714844 139.039062 C 174.40625 137.492188 174.296875 135.941406 174.375 134.304688 C 174.636719 129.203125 176.8125 124.59375 178.917969 120.140625 C 179.625 118.644531 180.355469 117.097656 180.988281 115.574219 C 182.589844 111.71875 184.03125 107.082031 182.570312 101.914062 C 181.632812 98.566406 179.84375 95.429688 178.113281 92.402344 C 175.921875 88.558594 173.652344 84.585938 172.9375 79.992188 C 172.636719 78.105469 172.5625 76.039062 172.703125 73.488281 C 172.734375 72.980469 173.132812 72.574219 173.636719 72.535156 C 180.171875 72.023438 186.710938 72.289062 193.027344 73.308594 C 193.5 73.382812 193.851562 73.773438 193.878906 74.25 C 194.050781 77.222656 193.925781 80.246094 193.816406 82.914062 C 193.757812 84.335938 193.703125 85.683594 193.703125 86.816406 L 193.695312 87.414062 C 193.679688 90.230469 193.621094 98.796875 196.402344 100.464844 C 196.679688 100.628906 197.523438 101.132812 199.414062 100.097656 C 202.707031 98.300781 203.191406 92.925781 203.621094 88.183594 C 203.824219 85.914062 204.019531 83.769531 204.515625 82.171875 C 205.074219 80.386719 206.042969 78.78125 207.328125 77.535156 C 207.605469 77.261719 208.015625 77.175781 208.382812 77.308594 C 214.601562 79.601562 220.546875 82.664062 226.054688 86.425781 C 226.34375 86.625 226.507812 86.960938 226.492188 87.3125 C 226.382812 89.664062 226.371094 92.042969 226.371094 93.851562 C 226.378906 95.925781 226.421875 97.992188 226.464844 99.992188 C 226.535156 103.332031 226.597656 106.488281 226.492188 109.207031 C 226.464844 110.382812 226.386719 111.507812 226.261719 112.542969 C 225.847656 115.984375 223.480469 126.25 218.1875 128.257812 C 216 129.082031 213.699219 128.4375 211.347656 126.332031 C 209.449219 124.640625 208.933594 121.867188 208.480469 119.421875 C 208.320312 118.578125 208.175781 117.78125 207.980469 117.054688 C 207.351562 114.691406 206.4375 113.558594 203.398438 114.347656 C 200.296875 115.15625 198.070312 118.21875 196.601562 123.722656 C 196.007812 125.949219 195.621094 128.25 195.3125 130.101562 C 195.242188 130.507812 195.175781 130.898438 195.113281 131.265625 C 194.984375 132.007812 194.867188 132.835938 194.742188 133.714844 C 193.90625 139.5625 192.769531 147.578125 186.132812 149.292969 C 185.496094 149.457031 184.863281 149.535156 184.242188 149.535156 " fill-opacity="1" fill-rule="nonzero"/><path fill="rgb(0%, 0%, 0%)" d="M 259.8125 157.84375 C 254.636719 161.421875 249.304688 165.011719 243.910156 168.554688 C 247.867188 168.347656 251.988281 167.113281 254.390625 166.269531 C 256.144531 165.65625 257.738281 165.082031 259.230469 164.527344 C 259.519531 162.34375 259.714844 160.109375 259.8125 157.84375 Z M 242.8125 170.617188 C 242.035156 170.617188 241.265625 170.578125 240.519531 170.488281 C 240.09375 170.4375 239.75 170.125 239.652344 169.707031 C 239.558594 169.292969 239.730469 168.859375 240.085938 168.628906 C 246.972656 164.144531 253.777344 159.570312 260.3125 155.027344 C 260.625 154.8125 261.03125 154.789062 261.367188 154.96875 C 261.703125 155.148438 261.910156 155.5 261.902344 155.882812 C 261.835938 159.117188 261.585938 162.320312 261.152344 165.40625 C 261.105469 165.773438 260.855469 166.085938 260.507812 166.214844 C 258.835938 166.84375 257.054688 167.488281 255.058594 168.1875 C 251.726562 169.355469 247.117188 170.617188 242.8125 170.617188 " fill-opacity="1" fill-rule="nonzero"/><path fill="rgb(0%, 0%, 0%)" d="M 100.390625 151.429688 C 100.355469 152.367188 100.339844 153.316406 100.339844 154.253906 C 100.339844 154.925781 100.347656 155.625 100.363281 156.339844 C 105.535156 153.757812 111.175781 152.214844 116.648438 150.71875 C 119.503906 149.9375 122.457031 149.128906 125.285156 148.1875 C 128.75 147.042969 131.523438 145.871094 134.023438 144.5 C 141.121094 140.613281 149.175781 135.972656 155.011719 130.042969 C 155.011719 130.039062 155.015625 130.039062 155.015625 130.035156 C 156.480469 128.5625 157.785156 127.007812 158.90625 125.40625 C 166.46875 114.574219 168.371094 106.316406 164.714844 100.15625 C 162.921875 97.125 162.921875 97.125 158.660156 97.117188 C 157.019531 97.097656 155.371094 97.296875 153.613281 97.492188 C 150.597656 97.820312 147.480469 98.164062 144.457031 97.519531 C 138.03125 96.148438 136.851562 91.691406 135.824219 87.753906 C 119.785156 98.488281 108.289062 114.429688 103.207031 132.949219 C 106.625 130.96875 109.824219 128.359375 112.933594 125.816406 C 114.726562 124.347656 116.585938 122.832031 118.449219 121.46875 C 118.679688 121.296875 141.640625 104.640625 150.84375 108.871094 C 153.023438 109.878906 154.253906 111.894531 154.492188 114.871094 C 155.078125 122.28125 146.710938 130.386719 145.027344 131.933594 C 139.679688 136.847656 133.664062 137.496094 127.304688 138.179688 C 126.140625 138.304688 124.960938 138.429688 123.765625 138.582031 C 115.042969 139.714844 109.4375 143.332031 103.707031 148.417969 C 102.851562 149.171875 102 149.957031 101.148438 150.734375 Z M 99.410156 159.003906 C 99.238281 159.003906 99.070312 158.957031 98.914062 158.871094 C 98.609375 158.699219 98.414062 158.378906 98.398438 158.03125 C 98.339844 156.722656 98.3125 155.449219 98.3125 154.253906 C 98.3125 153.148438 98.335938 152.027344 98.382812 150.921875 C 98.394531 150.652344 98.511719 150.398438 98.710938 150.214844 L 99.777344 149.238281 C 100.640625 148.449219 101.5 147.660156 102.363281 146.894531 C 109.476562 140.585938 115.601562 137.59375 123.507812 136.570312 C 124.714844 136.414062 125.910156 136.285156 127.085938 136.160156 C 133.371094 135.484375 138.800781 134.902344 143.65625 130.4375 C 147.972656 126.46875 152.871094 120.050781 152.472656 115.035156 C 152.292969 112.816406 151.484375 111.402344 149.996094 110.71875 C 147.070312 109.371094 141.5 110.671875 133.894531 114.472656 C 127.800781 117.519531 121.910156 121.453125 119.644531 123.109375 C 117.824219 124.4375 115.988281 125.941406 114.214844 127.390625 C 110.414062 130.496094 106.484375 133.703125 102.089844 135.847656 C 101.738281 136.019531 101.316406 135.972656 101.011719 135.726562 C 100.703125 135.480469 100.566406 135.078125 100.664062 134.695312 C 105.644531 114.265625 118.15625 96.714844 135.894531 85.28125 C 136.164062 85.101562 136.5 85.070312 136.804688 85.183594 C 137.105469 85.296875 137.332031 85.550781 137.417969 85.859375 C 137.542969 86.304688 137.660156 86.753906 137.773438 87.203125 C 138.785156 91.074219 139.65625 94.417969 144.882812 95.53125 C 147.585938 96.113281 150.535156 95.785156 153.390625 95.472656 C 155.128906 95.28125 156.910156 95.054688 158.660156 95.085938 C 163.773438 95.09375 164.207031 95.316406 166.429688 99.066406 C 170.5625 106.039062 168.632812 115.015625 160.566406 126.574219 C 159.378906 128.265625 158 129.914062 156.457031 131.46875 C 150.429688 137.59375 142.21875 142.328125 135 146.285156 C 132.386719 147.710938 129.507812 148.929688 125.925781 150.113281 C 123.042969 151.070312 120.0625 151.890625 117.179688 152.675781 C 111.3125 154.28125 105.242188 155.941406 99.898438 158.875 C 99.746094 158.960938 99.578125 159.003906 99.410156 159.003906 " fill-opacity="1" fill-rule="nonzero"/><path fill="rgb(0%, 0%, 0%)" d="M 117.964844 204.378906 C 120.375 207.371094 123.007812 210.195312 125.800781 212.796875 C 130.878906 210.695312 136.210938 208.355469 141.683594 205.832031 C 141.058594 205.3125 140.4375 204.773438 139.824219 204.238281 C 138.933594 203.457031 138.015625 202.652344 137.089844 201.929688 C 130.140625 196.472656 124.90625 199.230469 117.964844 204.378906 Z M 125.589844 214.996094 C 125.34375 214.996094 125.097656 214.90625 124.90625 214.734375 C 121.601562 211.703125 118.511719 208.371094 115.726562 204.824219 C 115.558594 204.609375 115.480469 204.335938 115.515625 204.0625 C 115.550781 203.792969 115.695312 203.546875 115.914062 203.382812 C 122.210938 198.644531 129.347656 193.273438 138.339844 200.328125 C 139.304688 201.085938 140.246094 201.910156 141.15625 202.707031 C 142.214844 203.628906 143.214844 204.503906 144.207031 205.242188 C 144.496094 205.457031 144.648438 205.804688 144.613281 206.160156 C 144.578125 206.515625 144.355469 206.828125 144.03125 206.980469 C 137.796875 209.882812 131.71875 212.554688 125.976562 214.921875 C 125.851562 214.972656 125.722656 214.996094 125.589844 214.996094 " fill-opacity="1" fill-rule="nonzero"/><path fill="rgb(0%, 0%, 0%)" d="M 103.429688 182.835938 C 79.21875 201.949219 66.339844 217.449219 69.769531 223.40625 C 72.542969 228.214844 88.195312 228.125 123.742188 213.644531 C 120.871094 210.910156 118.179688 207.949219 115.726562 204.824219 C 115.722656 204.820312 115.722656 204.820312 115.722656 204.820312 C 113.386719 201.816406 111.246094 198.660156 109.367188 195.429688 C 107.039062 191.429688 105.046875 187.199219 103.429688 182.835938 Z M 78.125 228.261719 C 73.277344 228.261719 69.597656 227.171875 68.011719 224.421875 C 65.578125 220.1875 66.921875 208.839844 103.28125 180.371094 C 103.539062 180.167969 103.875 180.101562 104.191406 180.195312 C 104.503906 180.285156 104.753906 180.523438 104.859375 180.832031 C 106.511719 185.546875 108.617188 190.113281 111.121094 194.40625 C 112.953125 197.558594 115.035156 200.640625 117.320312 203.570312 C 120.035156 207.027344 123.050781 210.28125 126.273438 213.234375 C 126.53125 213.464844 126.648438 213.816406 126.585938 214.160156 C 126.53125 214.503906 126.296875 214.789062 125.976562 214.921875 C 114.605469 219.609375 91.753906 228.261719 78.125 228.261719 " fill-opacity="1" fill-rule="nonzero"/><path fill="rgb(0%, 0%, 0%)" d="M 144.078125 225.585938 C 153.21875 230.242188 163.054688 233.042969 173.347656 233.910156 C 174.589844 232.75 175.855469 231.511719 177.207031 230.132812 C 183.390625 223.816406 186.175781 214.324219 188.300781 205.925781 C 188.632812 204.621094 188.914062 203.269531 189.148438 201.835938 C 173.960938 210.378906 158.816406 218.359375 144.078125 225.585938 Z M 173.710938 235.972656 C 173.683594 235.972656 173.65625 235.972656 173.628906 235.96875 C 162.226562 235.070312 151.363281 231.867188 141.351562 226.445312 C 141.015625 226.265625 140.808594 225.914062 140.816406 225.53125 C 140.824219 225.152344 141.046875 224.808594 141.386719 224.640625 C 157.242188 216.917969 173.578125 208.308594 189.953125 199.050781 C 190.289062 198.863281 190.699219 198.878906 191.019531 199.09375 C 191.335938 199.304688 191.507812 199.683594 191.457031 200.066406 C 191.160156 202.363281 190.769531 204.445312 190.261719 206.425781 C 188.074219 215.082031 185.191406 224.875 178.652344 231.554688 C 177.160156 233.082031 175.769531 234.4375 174.394531 235.703125 C 174.207031 235.875 173.960938 235.972656 173.710938 235.972656 " fill-opacity="1" fill-rule="nonzero"/><path fill="rgb(0%, 0%, 0%)" d="M 243.777344 102.773438 C 251.15625 111.929688 256.535156 122.679688 259.410156 134.039062 C 292.332031 107.371094 290.925781 98.332031 289.683594 96.183594 C 288.484375 94.097656 281.628906 88.476562 243.777344 102.773438 Z M 258.804688 136.847656 C 258.691406 136.847656 258.578125 136.828125 258.46875 136.792969 C 258.144531 136.675781 257.894531 136.402344 257.816406 136.0625 C 255.011719 123.980469 249.308594 112.539062 241.324219 102.976562 C 241.109375 102.726562 241.035156 102.386719 241.117188 102.070312 C 241.199219 101.753906 241.433594 101.496094 241.738281 101.378906 C 258.042969 95.136719 286.179688 86.035156 291.4375 95.167969 C 296.847656 104.554688 273.710938 125.171875 259.4375 136.625 C 259.253906 136.773438 259.03125 136.847656 258.804688 136.847656 " fill-opacity="1" fill-rule="nonzero"/><path fill="rgb(0%, 0%, 0%)" d="M 254.722656 167.230469 L 254.730469 167.230469 Z M 201.421875 194.8125 C 201.015625 197.710938 199.765625 200.441406 198.554688 203.082031 C 196.933594 206.625 195.398438 209.96875 195.894531 213.496094 C 196.210938 215.730469 196.957031 217.039062 198.109375 217.378906 C 201.59375 218.394531 208.984375 211.683594 212.820312 207.210938 C 213.414062 206.523438 214.011719 205.8125 214.621094 205.09375 C 220.359375 198.335938 226.859375 190.667969 235.1875 187.507812 C 238.777344 186.140625 242.441406 184.894531 245.984375 183.691406 C 249.128906 182.621094 252.375 181.515625 255.542969 180.339844 C 257.0625 175.9375 258.191406 171.394531 258.90625 166.8125 C 257.703125 167.253906 256.429688 167.707031 255.058594 168.1875 C 251.222656 169.53125 245.691406 171.007812 240.890625 170.527344 C 228.300781 178.722656 215.023438 186.886719 201.421875 194.8125 Z M 198.847656 219.503906 C 198.394531 219.503906 197.957031 219.449219 197.539062 219.324219 C 195.558594 218.742188 194.328125 216.878906 193.890625 213.777344 C 193.3125 209.667969 195.039062 205.886719 196.714844 202.234375 C 197.925781 199.582031 199.183594 196.84375 199.472656 194.082031 C 199.503906 193.761719 199.691406 193.472656 199.96875 193.308594 C 213.804688 185.261719 227.300781 176.957031 240.085938 168.628906 C 240.289062 168.5 240.523438 168.441406 240.761719 168.472656 C 245.507812 169.046875 251.335938 167.34375 254.386719 166.273438 C 256.371094 165.574219 258.140625 164.9375 259.796875 164.316406 C 260.128906 164.191406 260.503906 164.25 260.785156 164.46875 C 261.0625 164.691406 261.203125 165.046875 261.15625 165.398438 C 260.429688 170.847656 259.128906 176.253906 257.296875 181.460938 C 257.195312 181.742188 256.976562 181.96875 256.695312 182.074219 C 253.363281 183.328125 249.945312 184.492188 246.632812 185.613281 C 243.109375 186.8125 239.464844 188.050781 235.90625 189.40625 C 228.066406 192.386719 221.742188 199.835938 216.167969 206.410156 C 215.554688 207.132812 214.949219 207.84375 214.355469 208.539062 C 213.332031 209.730469 204.769531 219.503906 198.847656 219.503906 " fill-opacity="1" fill-rule="nonzero"/><path fill="rgb(0%, 0%, 0%)" d="M 251.40625 190.175781 C 241.527344 195.140625 231.8125 201.96875 223.789062 209.617188 C 218.617188 214.539062 211.460938 221.902344 205.515625 230.046875 C 225.4375 223.359375 241.925781 209.03125 251.40625 190.175781 Z M 202.949219 232.9375 C 202.628906 232.9375 202.324219 232.785156 202.128906 232.519531 C 201.878906 232.171875 201.871094 231.703125 202.113281 231.347656 C 208.449219 222.09375 216.636719 213.621094 222.390625 208.144531 C 231.273438 199.679688 242.195312 192.195312 253.148438 187.074219 C 253.535156 186.894531 253.988281 186.972656 254.292969 187.273438 C 254.59375 187.574219 254.675781 188.027344 254.5 188.417969 C 244.601562 210.003906 225.917969 226.214844 203.234375 232.894531 C 203.140625 232.925781 203.042969 232.9375 202.949219 232.9375 " fill-opacity="1" fill-rule="nonzero"/><path fill="rgb(0%, 0%, 0%)" d="M 193.933594 75.515625 C 194.011719 78.070312 193.90625 80.625 193.816406 82.914062 C 193.757812 84.335938 193.703125 85.683594 193.703125 86.816406 L 193.695312 87.414062 C 193.679688 90.230469 193.621094 98.796875 196.402344 100.464844 C 196.679688 100.628906 197.523438 101.132812 199.414062 100.097656 C 202.707031 98.300781 203.191406 92.925781 203.621094 88.183594 C 203.824219 85.914062 204.019531 83.769531 204.515625 82.171875 C 204.914062 80.910156 205.515625 79.734375 206.289062 78.714844 C 202.269531 77.316406 198.128906 76.246094 193.933594 75.515625 Z M 197.390625 102.765625 C 196.660156 102.765625 195.980469 102.578125 195.363281 102.207031 C 192.035156 100.210938 191.628906 93.605469 191.671875 87.402344 L 191.675781 86.8125 C 191.675781 85.640625 191.730469 84.273438 191.792969 82.828125 C 191.898438 80.210938 192.019531 77.242188 191.855469 74.367188 C 191.839844 74.058594 191.960938 73.761719 192.1875 73.554688 C 192.414062 73.351562 192.722656 73.257812 193.023438 73.308594 C 198.257812 74.128906 203.425781 75.476562 208.382812 77.308594 C 208.710938 77.433594 208.953125 77.710938 209.023438 78.054688 C 209.097656 78.394531 208.988281 78.75 208.738281 78.992188 C 207.699219 80.003906 206.90625 81.3125 206.449219 82.78125 C 206.015625 84.167969 205.832031 86.207031 205.636719 88.367188 C 205.164062 93.613281 204.628906 99.566406 200.382812 101.882812 C 199.308594 102.46875 198.308594 102.765625 197.390625 102.765625 " fill-opacity="1" fill-rule="nonzero"/><path fill="rgb(0%, 0%, 0%)" d="M 238.617188 99.425781 C 238.265625 99.425781 237.925781 99.246094 237.738281 98.917969 C 237.457031 98.433594 237.625 97.8125 238.109375 97.535156 C 240.132812 96.363281 241.714844 95.566406 243.246094 94.953125 C 244.265625 94.542969 245.308594 94.160156 246.3125 93.789062 C 248.121094 93.121094 249.988281 92.433594 251.742188 91.585938 C 254.050781 90.457031 256.574219 89.28125 259.304688 88.339844 C 259.835938 88.15625 260.410156 88.441406 260.59375 88.972656 C 260.773438 89.5 260.492188 90.078125 259.964844 90.261719 C 257.335938 91.167969 254.882812 92.3125 252.625 93.414062 C 250.78125 94.304688 248.863281 95.011719 247.011719 95.695312 C 246.019531 96.0625 244.992188 96.4375 244 96.839844 C 242.5625 97.414062 241.058594 98.171875 239.121094 99.292969 C 238.964844 99.382812 238.789062 99.425781 238.617188 99.425781 " fill-opacity="1" fill-rule="nonzero"/><path fill="rgb(0%, 0%, 0%)" d="M 234.734375 95.621094 C 234.371094 95.621094 234.019531 95.429688 233.839844 95.085938 C 233.574219 94.59375 233.761719 93.976562 234.253906 93.710938 C 236.640625 92.429688 239.328125 91.199219 242.238281 90.054688 C 244.890625 89.011719 247.578125 87.910156 250.175781 86.84375 C 253.664062 85.414062 257.265625 83.941406 260.84375 82.582031 C 261.367188 82.382812 261.953125 82.644531 262.152344 83.171875 C 262.351562 83.695312 262.085938 84.28125 261.5625 84.480469 C 258.007812 85.828125 254.417969 87.300781 250.945312 88.726562 C 248.339844 89.792969 245.640625 90.898438 242.980469 91.945312 C 240.144531 93.0625 237.53125 94.257812 235.210938 95.503906 C 235.058594 95.585938 234.894531 95.621094 234.734375 95.621094 " fill-opacity="1" fill-rule="nonzero"/><path fill="rgb(0%, 0%, 0%)" d="M 63.492188 210.855469 C 63.234375 210.855469 62.972656 210.753906 62.777344 210.558594 C 62.378906 210.160156 62.378906 209.519531 62.777344 209.121094 C 65.179688 206.710938 67.65625 204.296875 70.054688 201.960938 C 71.925781 200.132812 73.804688 198.304688 75.664062 196.460938 C 79.96875 192.199219 84.546875 188.453125 88.054688 185.664062 L 88.355469 185.421875 C 92.671875 181.984375 97.136719 178.425781 101.867188 175.542969 C 102.339844 175.253906 102.964844 175.40625 103.257812 175.886719 C 103.546875 176.363281 103.398438 176.988281 102.917969 177.28125 C 98.296875 180.09375 93.886719 183.613281 89.617188 187.015625 L 89.316406 187.253906 C 85.847656 190.011719 81.320312 193.714844 77.089844 197.90625 C 75.222656 199.753906 73.34375 201.585938 71.464844 203.417969 C 69.078125 205.746094 66.605469 208.15625 64.210938 210.558594 C 64.011719 210.753906 63.75 210.855469 63.492188 210.855469 " fill-opacity="1" fill-rule="nonzero"/><path fill="rgb(0%, 0%, 0%)" d="M 23.78125 236.449219 C 20.078125 241.613281 14.105469 249.339844 17.367188 256.054688 C 20.183594 261.863281 27.519531 258.839844 31.984375 257.203125 C 33.203125 256.753906 32.675781 254.789062 31.449219 255.242188 C 27.804688 256.582031 20.800781 259.875 18.90625 254.492188 C 17.84375 251.476562 19.070312 248.121094 20.441406 245.414062 C 21.863281 242.601562 23.699219 240.03125 25.53125 237.472656 C 26.292969 236.410156 24.535156 235.394531 23.78125 236.449219 " fill-opacity="1" fill-rule="nonzero"/><path fill="rgb(0%, 0%, 0%)" d="M 332.085938 69.3125 C 333.597656 68.902344 335.402344 68.648438 336.792969 69.570312 C 338.195312 70.5 338.566406 72.355469 338.5 73.933594 C 338.367188 76.949219 336.625 79.761719 334.886719 82.121094 C 331.148438 87.207031 326.195312 91.175781 321.679688 95.523438 C 320.742188 96.433594 322.175781 97.867188 323.113281 96.960938 C 328.519531 91.746094 334.761719 86.96875 338.492188 80.296875 C 340.101562 77.417969 341.246094 73.863281 340.023438 70.617188 C 338.664062 67.003906 334.882812 66.453125 331.546875 67.355469 C 330.289062 67.695312 330.820312 69.65625 332.085938 69.3125 " fill-opacity="1" fill-rule="nonzero"/><g fill="rgb(0%, 0%, 0%)" fill-opacity="1"><g transform="translate(2.86489, 175.723468)"><g><path d="M 58.8125 -98.179688 L 58.8125 -100.753906 L 7.714844 -100.753906 L 7.714844 0.160156 L 58.8125 0.160156 L 58.8125 -2.410156 L 19.121094 -2.410156 L 19.121094 -51.261719 L 54.472656 -51.261719 L 54.472656 -53.832031 L 19.121094 -53.832031 L 19.121094 -98.179688 Z M 58.8125 -98.179688 "/></g></g></g><g fill="rgb(0%, 0%, 0%)" fill-opacity="1"><g transform="translate(19.59549, 323.100489)"><g><path d="M 2.324219 0 L 25.667969 0 L 25.667969 -0.789062 L 6.742188 -0.789062 L 6.742188 -16.460938 L 21.484375 -16.460938 L 21.484375 -17.253906 L 6.742188 -17.253906 L 6.742188 -31.621094 L 25.667969 -31.621094 L 25.667969 -32.410156 L 2.324219 -32.410156 Z M 2.324219 0 "/></g></g></g><g fill="rgb(0%, 0%, 0%)" fill-opacity="1"><g transform="translate(54.14507, 323.100489)"><g><path d="M 14.972656 -14.972656 L 3.71875 0 L 4.695312 0 L 15.4375 -14.324219 L 26.179688 0 L 31.714844 0 L 18.183594 -17.996094 L 29.015625 -32.410156 L 28.039062 -32.410156 L 17.71875 -18.648438 L 7.394531 -32.410156 L 1.859375 -32.410156 Z M 14.972656 -14.972656 "/></g></g></g><g fill="rgb(0%, 0%, 0%)" fill-opacity="1"><g transform="translate(95.715944, 323.100489)"><g><path d="M 2.324219 -32.410156 L 2.324219 0 L 6.742188 0 L 6.742188 -11.207031 L 14.554688 -11.207031 C 22.179688 -11.207031 28.785156 -12.882812 28.785156 -22.460938 C 28.785156 -30.226562 22.925781 -33.109375 16.230469 -33.109375 C 12.414062 -33.109375 9.578125 -31.761719 7.671875 -25.808594 C 7.160156 -24.460938 6.976562 -23.109375 6.742188 -21.714844 L 6.742188 -32.410156 Z M 8.371094 -25.34375 C 10.042969 -31.527344 13.390625 -32.320312 16.230469 -32.320312 C 21.296875 -32.320312 24.226562 -30.179688 24.226562 -22.460938 C 24.226562 -12.648438 19.066406 -11.996094 14.554688 -11.996094 L 6.742188 -11.996094 C 6.742188 -11.996094 6.324219 -18.230469 8.371094 -25.34375 Z M 8.371094 -25.34375 "/></g></g></g><g fill="rgb(0%, 0%, 0%)" fill-opacity="1"><g transform="translate(134.124907, 323.100489)"><g><path d="M 1.394531 0 L 2.230469 0 L 6.789062 -13.253906 L 20.042969 -13.253906 L 25.203125 0 L 29.945312 0 L 17.34375 -32.410156 L 12.554688 -32.410156 Z M 13.019531 -31.386719 L 19.761719 -14.042969 L 7.066406 -14.042969 Z M 13.019531 -31.386719 "/></g></g></g><g fill="rgb(0%, 0%, 0%)" fill-opacity="1"><g transform="translate(173.463852, 323.100489)"><g><path d="M 1.394531 -32.410156 L 13.996094 0 L 18.785156 0 L 29.945312 -32.410156 L 29.109375 -32.410156 L 18.320312 -1.023438 L 6.136719 -32.410156 Z M 1.394531 -32.410156 "/></g></g></g><g fill="rgb(0%, 0%, 0%)" fill-opacity="1"><g transform="translate(212.802798, 323.100489)"><g><path d="M 2.324219 0 L 25.667969 0 L 25.667969 -0.789062 L 6.742188 -0.789062 L 6.742188 -16.460938 L 21.484375 -16.460938 L 21.484375 -17.253906 L 6.742188 -17.253906 L 6.742188 -31.621094 L 25.667969 -31.621094 L 25.667969 -32.410156 L 2.324219 -32.410156 Z M 2.324219 0 "/></g></g></g><g fill="rgb(0%, 0%, 0%)" fill-opacity="1"><g transform="translate(247.352382, 323.100489)"><g><path d="M 2.324219 0 L 6.742188 0 L 6.742188 -11.207031 L 14.554688 -11.207031 C 14.925781 -11.207031 15.300781 -11.207031 15.671875 -11.207031 L 23.296875 0 L 28.597656 0 L 20.648438 -11.71875 C 25.390625 -12.789062 28.785156 -15.625 28.785156 -22.460938 C 28.785156 -30.226562 22.925781 -33.109375 16.230469 -33.109375 C 12.695312 -33.109375 9.8125 -31.898438 7.671875 -25.855469 C 7.160156 -24.507812 6.976562 -23.714844 6.742188 -22.320312 L 6.742188 -32.410156 L 2.324219 -32.410156 Z M 8.417969 -25.621094 C 10.601562 -31.574219 13.160156 -32.363281 16.367188 -32.363281 C 21.4375 -32.363281 24.226562 -30.179688 24.226562 -22.460938 C 24.226562 -12.648438 19.066406 -11.996094 14.554688 -11.996094 L 6.742188 -11.996094 C 6.742188 -11.996094 6.511719 -20.601562 8.417969 -25.621094 Z M 8.417969 -25.621094 "/></g></g></g><g fill="rgb(0%, 0%, 0%)" fill-opacity="1"><g transform="translate(285.761354, 323.100489)"><g><path d="M 16.183594 -19.390625 C 8.976562 -19.996094 5.441406 -22.367188 5.441406 -26.085938 C 5.441406 -31.296875 10.042969 -32.363281 14.695312 -32.363281 C 22.273438 -32.363281 22.554688 -28.597656 22.554688 -22.367188 L 27.527344 -23.019531 C 27.527344 -30.179688 22.785156 -33.109375 14.695312 -33.109375 C 8.277344 -33.109375 3.117188 -30.550781 3.117188 -24.644531 C 3.117188 -19.53125 5.394531 -16.136719 14.601562 -15.019531 C 24.367188 -13.765625 27.109375 -11.578125 27.109375 -7.023438 C 27.109375 -1.117188 22.601562 0 15.808594 0 C 8.742188 0 7.066406 -3.300781 7.066406 -11.066406 L 1.859375 -10.277344 C 1.859375 -2.230469 6.511719 0.742188 15.808594 0.742188 C 25.667969 0.742188 29.527344 -2.09375 29.527344 -8.511719 C 29.527344 -14.789062 26.785156 -18.507812 16.183594 -19.390625 Z M 16.183594 -19.390625 "/></g></g></g><g fill="rgb(0%, 0%, 0%)" fill-opacity="1"><g transform="translate(325.146801, 323.100489)"><g><path d="M 2.324219 0 L 25.667969 0 L 25.667969 -0.789062 L 6.742188 -0.789062 L 6.742188 -16.460938 L 21.484375 -16.460938 L 21.484375 -17.253906 L 6.742188 -17.253906 L 6.742188 -31.621094 L 25.667969 -31.621094 L 25.667969 -32.410156 L 2.324219 -32.410156 Z M 2.324219 0 "/></g></g></g><g fill="rgb(0%, 0%, 0%)" fill-opacity="1"><g transform="translate(270.465016, 263.287727)"><g><path d="M 92.398438 -100.753906 L 54.3125 -15.105469 L 17.675781 -100.753906 L 5.304688 -100.753906 L 49.332031 2.25 L 50.296875 2.25 L 96.09375 -100.753906 Z M 92.398438 -100.753906 "/></g></g></g></svg>